<svg xmlns="http://www.w3.org/2000/svg"  viewBox="0 0 100 100" width="100px" height="100px"><path d="M45.985,98.028c-3.183,0-6.195-1.188-8.516-3.35 c-5.153-4.081-13.793-11.727-15.298-18.154c-0.223-0.95-0.859-8.882-1.421-13.637c-3.18-1.712-5.769-3.135-6.239-6.893 L11.05,28.307c-0.39-3.116,1.501-6.062,4.496-7.006c0.635-0.2,1.291-0.301,1.953-0.301c1.293,0,2.526,0.381,3.565,1.062 c4.02-11.896,17.871-19.106,30.938-19.106c13.073,0,27.511,5.851,31.531,17.747C84.573,20.022,85.213,21,86.506,21 c0.66,0,1.315,0.101,1.947,0.299c3.001,0.945,4.892,3.892,4.502,7.008l-3.461,27.688c-0.47,3.758-2.73,6.928-5.91,8.64 c-0.562,4.755-1.527,10.938-1.749,11.889c-1.506,6.43-10.146,14.075-15.299,18.155c-2.321,2.162-5.333,3.35-8.515,3.35H45.985z" opacity=".35"/><path fill="#f2f2f2" d="M43.985,96.028c-3.183,0-6.195-1.188-8.516-3.35c-5.153-4.081-13.793-11.727-15.298-18.154 c-0.223-0.95-1.188-7.135-1.75-11.89c-3.18-1.712-5.44-4.882-5.911-8.64L9.05,26.307c-0.39-3.116,1.501-6.062,4.496-7.006 c0.635-0.2,1.291-0.301,1.953-0.301c1.293,0,2.526,0.381,3.565,1.062C23.084,8.165,36.933,1.972,50,1.972 c13.073,0,26.921,6.193,30.941,18.09C81.98,19.381,83.213,19,84.506,19c0.66,0,1.315,0.101,1.947,0.299 c3.001,0.945,4.892,3.892,4.502,7.008l-3.461,27.688c-0.47,3.758-2.73,6.928-5.91,8.64c-0.562,4.755-1.527,10.938-1.749,11.889 c-1.506,6.43-10.146,14.075-15.299,18.155c-2.321,2.162-5.333,3.35-8.515,3.35H43.985z"/><path fill="#ffc7a3" d="M40.985,88.028c-1.202,0-2.332-0.468-3.182-1.318L26.318,75.225c-0.85-0.85-1.318-1.98-1.318-3.182 V63c0-0.829,0-19.524,0-20V28.528c0-12.75,12.959-18.557,25-18.557c9.666,0,25,5.038,25,18.557V43c0,0.477,0,19.171,0,20v9.043 c0,1.202-0.468,2.332-1.318,3.182L62.197,86.71c-0.85,0.85-1.98,1.318-3.182,1.318H40.985z"/><polygon fill="#40396e" points="52,77 48,77 45,74 55,74" opacity=".35"/><polygon fill="#40396e" points="48,68 52,68 59,71 41,71" opacity=".35"/><path fill="#de5147" d="M50,9.972c-12.419,0-25,5.807-25,18.557V38v7.5V63v3v6.043c0,1.202,0.468,2.332,1.318,3.182L43,90 c0,0,1.503-0.564,1.671-0.24C47,90,53,90,55.196,90.001C55.425,89.607,57,90,57,90l16.682-14.775c0.85-0.85,1.318-1.98,1.318-3.182 V66v-3V45.5V38v-9.472C75,15.779,62.419,9.972,50,9.972z M31,39c17,0,17,13,17,13s-10,4-17,4C29,52,28,45,31,39z M55.191,84 L55.191,84c-1.038-1.792-2.971-3-5.191-3s-4.153,1.208-5.191,3h0c-1.728,0-3.313-0.957-4.118-2.486L32,65c8-5,18-8,18-8s10,3,18,8 l-8.692,16.514C58.504,83.043,56.918,84,55.191,84z M69,56c-7,0-17-4-17-4s0-13,17-13C72,45,71,52,69,56z"/><g><path fill="#f2f2f2" d="M43,50.455c0,0-3.653,0-6.364,0S33,48,33,48s0.909-2.455,4.545-2.455 C40.256,45.545,43,50.455,43,50.455z"/><circle cx="37.909" cy="48" r="2.455" fill="#40396e"/><path fill="#40396e" d="M44,49c1.333,0,2.005-1.625,1.047-2.552C44.476,45.896,43.79,45.369,43,45 c-3.379-1.69-5.449-2.759-7.138-2.759C32.482,42.241,31,45,31,45s0.013-0.004,0.037-0.011c2.3-0.658,4.769-0.316,6.811,0.928 C40.093,47.285,43.01,49,44,49L44,49z"/><path fill="#f2f2f2" d="M62.459,45.545c3.633,0,4.541,2.452,4.541,2.452s-0.925,2.452-3.633,2.452s-6.358,0-6.358,0 S59.75,45.545,62.459,45.545z"/><circle cx="62.096" cy="47.998" r="2.452" fill="#40396e"/><path fill="#40396e" d="M56.009,49c0.99,0,3.907-1.715,6.152-3.083c2.042-1.244,4.511-1.586,6.811-0.928 C68.996,44.996,69.009,45,69.009,45s-1.482-2.759-4.862-2.759c-1.689,0-3.759,1.069-7.138,2.759 c-0.79,0.369-1.476,0.896-2.047,1.448C54.004,47.375,54.676,49,56.009,49L56.009,49z"/><path fill="#f9b84f" d="M26,58l-2.155-0.5c-2.482,0-4.576-1.848-4.884-4.312L15.5,25.5l10.33,15.996L26,58z"/><path fill="#f9b84f" d="M74.006,58l2.155-0.5c2.482,0,4.576-1.848,4.884-4.312L84.506,25.5l-10.33,15.996L74.006,58z"/><path fill="none" stroke="#40396e" stroke-linecap="round" stroke-linejoin="round" stroke-miterlimit="10" stroke-width="3" d="M50,8.472c-11.328,0-24.315,5.514-25.5,17.028c-0.327,3.173-0.26,9.414-0.155,16.707L15.5,25.5l3.461,27.688 c0.308,2.463,2.402,4.312,4.884,4.312H24.5c0,3,1.772,14.57,2,15.543c1.244,5.314,13.243,14.728,13.243,14.728 c1.125,1.125,2.651,1.757,4.243,1.757h6.009h0.011"/><path fill="none" stroke="#40396e" stroke-linecap="round" stroke-linejoin="round" stroke-miterlimit="10" stroke-width="3" d="M50.006,8.472c11.328,0,24.315,5.514,25.5,17.028c0.327,3.173,0.26,9.414,0.155,16.707L84.506,25.5l-3.461,27.688 c-0.308,2.463-2.402,4.312-4.884,4.312h-0.655c0,3-1.772,14.57-2,15.543c-1.244,5.314-13.243,14.728-13.243,14.728 c-1.125,1.125-2.651,1.757-4.243,1.757h-6.009H50"/></g></svg>