<svg xmlns="http://www.w3.org/2000/svg"  viewBox="0 0 100 100" width="100px" height="100px"><path d="M51.111,96.5c-10.585,0-19.654-4.238-25.723-11.976 C11.019,79.24,2.494,69.59,2.494,58.492c0-7.198,3.538-14.005,9.789-18.986c0.699-6.18,2.259-10.548,4.646-13.004 c0.473-0.512,0.965-0.988,1.472-1.424C25.394,14.068,37.47,7.523,50.889,7.523c7.466,0,14.747,2.213,20.989,6.254 c0.071-1.975,1.062-3.843,2.682-5.017c1.112-0.808,2.433-1.237,3.814-1.237c0.688,0,1.366,0.108,2.02,0.322 c0.411,0.135,1.687,0.587,3.309,1.493c0.832-0.88,1.904-1.524,3.112-1.834c0.541-0.136,1.077-0.203,1.613-0.203 c1.591,0,3.121,0.579,4.31,1.63c0.896,0.793,8.663,8.053,6.032,18.913c-0.81,3.438-2.964,8.013-8.481,11.49 c0.009,0.305,0.021,0.944,0.021,0.946c6.021,5.181,9.185,11.435,9.185,18.211c0,11.083-8.472,20.744-22.749,26.054 C70.507,92.059,61.04,96.5,51.111,96.5z" opacity=".35"/><path fill="#f2f2f2" d="M49.111,94.5c-10.585,0-19.654-4.238-25.723-11.976C9.019,77.24,0.494,67.59,0.494,56.492 c0-7.198,3.538-14.005,9.789-18.986c0.699-6.18,2.259-10.548,4.646-13.004c0.473-0.512,0.965-0.988,1.472-1.424 C23.394,12.068,35.47,5.523,48.889,5.523c7.466,0,14.747,2.213,20.989,6.254c0.071-1.975,1.062-3.843,2.682-5.017 c1.112-0.808,2.433-1.237,3.814-1.237c0.688,0,1.366,0.108,2.02,0.322c0.411,0.135,1.687,0.587,3.309,1.493 c0.832-0.88,1.904-1.524,3.112-1.834c0.541-0.136,1.077-0.203,1.613-0.203c1.591,0,3.121,0.579,4.31,1.63 c0.896,0.793,8.663,8.053,6.032,18.913c-0.81,3.438-2.964,8.013-8.481,11.49c0.009,0.305,0.021,0.944,0.021,0.946 c6.021,5.181,9.185,11.435,9.185,18.211c0,11.083-8.472,20.744-22.749,26.054C68.507,90.059,59.04,94.5,49.111,94.5z"/><path fill="#96c362" d="M90.994,56.492c0-6.257-3.894-11.62-10.375-15.866c-1.341-16.089-14.748-28.603-31.731-28.603 S18.498,24.537,17.157,40.626c-6.704,4.022-10.163,9.832-10.163,15.866c0,8.938,8.151,16.536,20.442,20.558 C32.129,83.978,39.726,88,49.112,88c8.938,0,16.983-4.469,21.676-10.95C82.854,73.028,90.994,65.43,90.994,56.492z"/><path fill="#b73b3b" d="M82.184,30.347c0,0-2.884-6.448,0.021-11.364c2.682-4.469,4.225-7.183,4.225-7.183 s5.81,5.14,4.022,12.514c-1.788,7.598-8.491,9.609-8.938,9.609C80.843,34.593,82.631,34.146,82.184,30.347z"/><path fill="#dd4f2c" d="M79,31c0,0-3.91-4.534-3.303-9.596c0.608-4.455,0.632-7.931,0.632-7.931s6.861,2.868,8.076,9.551 c1.215,6.885-3.443,10.733-4.05,11.138C79.748,34.769,80.62,33.835,79,31z"/><path fill="#dd4f2c" d="M79.112,29.517c-0.477-0.477-1.188,1.261-2.831,0.404c-2.767-1.441-6.376-3.787-10.521-3.787 c-6.607,0-11.51,3.837-16.838,3.837s-10.231-3.837-16.838-3.837c-4.511,0-7.888,1.376-9.718,2.38 C21.515,28.98,21.744,28.52,21,29.332c-2.558,2.558-2.984,11.723-2.984,11.723s6.394,4.689,14.494,4.689 c0,0,5.329-7.886,16.199-7.886c11.083,0,17.051,8.099,17.051,8.099c7.46-0.426,11.51-2.558,14.707-4.902 c0.316-0.868,0.733-2.812,0.854-4.45C81.526,33.816,80.186,30.457,79.112,29.517z"/><path fill="none" stroke="#40396e" stroke-linecap="round" stroke-linejoin="round" stroke-miterlimit="10" stroke-width="3" d="M81.785,41.422c0.058-0.042,0.106-5.4-0.285-7.922c2.065-0.816,7.553-3.24,8.952-9.186C92.24,16.94,86.43,11.8,86.43,11.8 s-0.837,2.339-2.793,5.857c-2.673-4.133-7.262-5.633-7.262-5.633s0,3.128-0.67,8.045c-0.46,3.831,2.103,8.962,1.451,8.659 c-5.349-9.645-16.033-16.704-28.266-16.704c-11.934,0-22.096,6.184-27.552,15.441c-0.601,0.42-1.156,0.926-1.721,1.542 c-2.435,2.436-3.026,10.562-3.114,12.037c-6.267,4.001-9.507,9.618-9.507,15.449c0,8.938,8.151,16.536,20.442,20.558 C32.129,83.978,39.726,88,49.112,88c8.938,0,16.983-4.469,21.676-10.95c12.067-4.022,20.207-11.62,20.207-20.558 C90.994,50.62,87.564,45.535,81.785,41.422z"/><path fill="#40396e" d="M69.419,63.786c-9.919,10.425-30.92,10.441-40.837,0 C41.224,70.256,56.778,70.272,69.419,63.786L69.419,63.786z" opacity=".35"/><path fill="#fff" d="M41,35.5c0,0-4.029,3.5-9,3.5s-9-3.5-9-3.5s4.029-3.5,9-3.5S41,35.5,41,35.5z"/><path fill="#40396e" d="M36,35c0-0.989-0.372-1.882-0.967-2.58C34.084,32.167,33.066,32,32,32s-2.084,0.167-3.033,0.42 C28.372,33.118,28,34.011,28,35c0,2.209,1.791,4,4,4S36,37.209,36,35z"/><path fill="#fff" d="M75,35.5c0,0-4.029,3.5-9,3.5s-9-3.5-9-3.5s4.029-3.5,9-3.5S75,35.5,75,35.5z"/><path fill="#40396e" d="M70,35c0-0.989-0.372-1.882-0.967-2.58C68.084,32.167,67.066,32,66,32s-2.084,0.167-3.033,0.42 C62.372,33.118,62,34.011,62,35c0,2.209,1.791,4,4,4S70,37.209,70,35z"/></svg>